<?xml version="1.0" standalone="no"?>
<!DOCTYPE svg PUBLIC "-//W3C//DTD SVG 20010904//EN"
 "http://www.w3.org/TR/2001/REC-SVG-20010904/DTD/svg10.dtd">
<svg version="1.0" xmlns="http://www.w3.org/2000/svg"
 width="735.000000pt" height="605.000000pt" viewBox="0 0 735.000000 605.000000"
 preserveAspectRatio="xMidYMid meet">

<g transform="translate(0.000000,605.000000) scale(0.100000,-0.100000)"
fill="#000000" stroke="none">
<path d="M5499 5930 c-41 -10 -102 -31 -135 -46 -57 -27 -66 -28 -229 -29
-139 -2 -182 -6 -237 -22 -85 -25 -170 -76 -217 -129 -38 -43 -67 -91 -60 -98
2 -3 31 2 64 10 58 14 135 11 135 -5 0 -5 -19 -16 -41 -27 -90 -40 -174 -158
-200 -282 -17 -86 -6 -336 21 -437 33 -127 122 -345 140 -345 4 0 10 78 13
173 5 172 16 237 53 320 9 20 20 37 23 37 3 0 14 -20 24 -45 19 -46 74 -103
125 -129 l29 -15 17 62 c40 144 127 252 251 313 127 63 229 49 317 -43 49 -51
136 -191 183 -297 22 -47 42 -86 46 -86 3 0 58 51 122 113 122 119 149 164
164 273 3 24 10 44 15 44 4 0 29 -19 54 -42 76 -70 126 -187 181 -423 25 -110
50 -204 54 -209 4 -5 21 18 37 50 68 137 102 284 102 444 0 256 -82 447 -274
635 -98 96 -158 137 -283 190 -152 65 -341 83 -494 45z"/>
<path d="M1960 5866 c-120 -26 -214 -69 -299 -136 -53 -42 -123 -113 -130
-133 -2 -5 18 -29 45 -53 l49 -42 -38 -70 c-74 -139 -94 -291 -57 -436 28
-110 74 -189 157 -272 253 -254 663 -232 891 46 152 186 172 467 48 673 l-35
58 39 43 c22 24 40 48 40 54 0 5 -36 44 -81 86 -88 83 -192 141 -304 171 -85
22 -245 28 -325 11z m150 -69 c0 -12 -5 -29 -10 -37 -7 -11 -10 -3 -10 28 0
26 4 41 10 37 6 -3 10 -16 10 -28z m-110 -17 c1 -14 1 -29 0 -35 -3 -16 -19
28 -19 55 -1 31 17 14 19 -20z m217 -5 c-1 -19 -4 -35 -8 -35 -14 0 -21 41 -9
55 17 21 18 20 17 -20z m88 -24 c-3 -12 -14 -21 -23 -21 -12 0 -13 3 -4 12 7
7 12 21 12 32 0 15 3 17 11 9 6 -6 8 -20 4 -32z m-385 -29 c-15 -5 -50 27 -50
46 0 11 9 7 30 -13 17 -17 26 -31 20 -33z m460 43 c0 -15 -31 -77 -36 -72 -8
8 16 77 27 77 5 0 9 -2 9 -5z m50 -34 c0 -6 -5 -13 -10 -16 -6 -4 -8 -10 -5
-15 6 -10 -4 -40 -15 -40 -10 0 -7 51 3 68 10 14 27 16 27 3z m-677 -50 c19
-33 21 -41 9 -41 -8 0 -16 14 -40 63 -2 4 0 7 5 7 5 0 16 -13 26 -29z m747
-27 c0 -28 -4 -43 -10 -39 -5 3 -10 26 -10 51 0 28 4 43 10 39 6 -3 10 -26 10
-51z m-810 -10 c0 -12 -2 -12 -14 -2 -8 7 -12 16 -9 21 7 11 23 -2 23 -19z
m-26 -47 c11 -15 17 -30 13 -33 -6 -7 -56 45 -57 59 0 16 23 1 44 -26z m571
18 c233 -61 391 -301 355 -539 -31 -208 -195 -372 -407 -408 -228 -38 -465
110 -534 334 -83 265 81 554 350 617 59 14 173 12 236 -4z m345 8 c0 -10 -42
-53 -52 -53 -5 0 1 14 14 30 20 28 38 39 38 23z m-913 -802 c-3 -9 -5 -6 -6 8
-1 16 -5 21 -16 17 -12 -4 -13 -2 -3 14 12 19 13 19 21 -2 4 -12 6 -29 4 -37z
m923 29 c0 -5 -10 -10 -22 -9 -22 0 -22 1 -3 9 11 5 21 9 23 9 1 1 2 -3 2 -9z
m-887 -50 c-3 -11 -9 -20 -15 -20 -5 0 -4 9 2 20 6 11 12 20 14 20 2 0 2 -9
-1 -20z m47 -54 c0 -26 -6 -18 -14 19 -5 22 -4 26 4 15 5 -8 10 -24 10 -34z
m724 -12 c3 -8 2 -12 -4 -9 -6 3 -10 10 -10 16 0 14 7 11 14 -7z m-145 -109
c0 -5 -4 -3 -9 5 -5 8 -9 22 -9 30 0 16 17 -16 18 -35z m-232 -37 c-3 -8 -6
-5 -6 6 -1 11 2 17 5 13 3 -3 4 -12 1 -19z m98 12 c3 -5 2 -10 -4 -10 -5 0
-13 5 -16 10 -3 6 -2 10 4 10 5 0 13 -4 16 -10z"/>
<path d="M2226 5441 c-22 -25 -17 -56 9 -56 16 0 20 7 20 30 0 20 6 31 17 33
22 4 40 -31 36 -71 -3 -28 -7 -32 -35 -35 -18 -2 -33 -8 -33 -14 0 -6 11 -8
26 -5 33 6 54 -16 54 -56 0 -63 -57 -101 -91 -61 -11 13 -10 17 4 25 27 16 22
49 -8 49 -21 0 -25 -5 -25 -28 0 -36 37 -72 74 -72 85 0 139 89 84 139 -20 19
-20 22 -5 39 23 26 21 55 -6 80 -31 29 -97 30 -121 3z"/>
<path d="M1870 5394 c-75 -32 -112 -123 -91 -220 17 -74 62 -114 129 -114 27
0 57 7 70 16 13 9 25 14 28 11 3 -2 0 -40 -5 -83 -8 -66 -14 -83 -36 -101 -27
-24 -78 -30 -105 -13 -12 8 -11 12 8 30 27 25 28 42 4 63 -57 52 -102 -34 -47
-88 19 -20 34 -25 77 -25 73 0 116 25 155 89 63 104 67 276 9 375 -41 70 -118
94 -196 60z m109 -18 c19 -23 34 -138 27 -199 -12 -91 -74 -130 -113 -70 -26
39 -26 217 0 256 20 30 66 37 86 13z"/>
<path d="M2280 5140 c-69 -3 -116 -7 -105 -9 40 -7 237 -6 241 1 8 12 -10 13
-136 8z"/>
<path d="M2261 5011 c-33 -55 -61 -102 -61 -105 0 -3 18 -6 40 -6 38 0 40 -2
40 -29 0 -25 -5 -30 -27 -34 -16 -2 6 -4 47 -4 41 -1 67 1 58 4 -28 7 -24 59
5 68 l22 8 -22 4 c-22 4 -23 9 -23 93 0 49 -4 91 -9 94 -4 3 -36 -39 -70 -93z
m19 -41 c0 -38 -2 -40 -30 -40 l-30 0 26 40 c15 22 28 40 30 40 2 0 4 -18 4
-40z"/>
<path d="M1335 5644 c-49 -25 -49 -30 0 -70 50 -42 67 -44 103 -11 28 26 28
42 -3 72 -28 29 -57 31 -100 9z"/>
<path d="M4500 5653 c-17 -6 -70 -54 -70 -63 0 -3 24 -19 54 -35 l55 -30 24
24 c14 12 27 31 30 42 10 37 -51 78 -93 62z"/>
<path d="M1173 5565 c-46 -28 -83 -80 -83 -117 0 -53 68 -75 133 -42 33 17
117 92 117 106 0 12 -92 78 -109 78 -9 0 -35 -11 -58 -25z"/>
<path d="M2683 5520 c7 -79 66 -198 170 -344 103 -145 123 -165 169 -173 42
-6 62 -23 29 -23 -12 0 -21 -2 -21 -5 0 -3 30 -48 66 -100 l66 -93 69 -17 c79
-20 95 -35 160 -158 21 -39 39 -66 39 -58 1 59 -80 260 -134 330 -20 27 -26
47 -26 83 0 45 -11 61 -25 38 -14 -23 -20 -6 -20 53 0 57 -4 68 -47 134 -58
89 -149 182 -253 259 -80 59 -212 134 -235 134 -9 0 -11 -16 -7 -60z"/>
<path d="M4331 5511 c-44 -44 -66 -99 -56 -139 20 -80 135 -44 195 61 16 29
30 56 30 60 0 9 -98 57 -117 57 -7 0 -30 -17 -52 -39z"/>
<path d="M6532 5428 c-23 -23 -14 -91 18 -141 33 -52 43 -53 89 -3 19 21 22
31 16 62 -12 67 -88 117 -123 82z"/>
<path d="M4187 5298 c-14 -21 -174 -298 -461 -797 -65 -111 -115 -205 -113
-207 2 -2 270 -3 595 -2 l592 3 -295 509 c-162 280 -297 511 -299 513 -2 3
-11 -6 -19 -19z m-7 -237 l0 -119 -39 -7 c-22 -4 -65 -22 -95 -40 -31 -18 -56
-31 -56 -29 0 6 160 285 173 302 5 6 11 12 13 12 2 0 4 -54 4 -119z m150 -43
c48 -84 86 -155 84 -157 -2 -2 -12 3 -21 11 -28 24 -95 56 -136 63 -35 7 -37
10 -37 44 0 62 13 202 18 197 2 -3 44 -74 92 -158z m-150 -388 c0 -295 6 -279
-85 -236 -60 28 -127 99 -143 154 -26 86 -11 176 41 244 34 45 123 98 163 98
l24 0 0 -260z m135 241 c200 -93 200 -386 0 -480 -90 -42 -85 -57 -85 239 l0
260 23 0 c12 0 40 -9 62 -19z m-419 -238 c0 -117 60 -216 164 -273 l55 -30
-218 0 c-120 0 -216 3 -214 8 15 28 210 362 211 362 1 0 2 -30 2 -67z m718
-105 c53 -92 99 -174 102 -182 5 -14 -18 -16 -207 -16 l-214 1 46 24 c60 31
133 113 153 172 9 26 16 76 16 111 0 36 2 63 4 61 2 -2 47 -79 100 -171z"/>
<path d="M1306 5280 c-14 -18 -26 -36 -26 -41 0 -6 14 -31 32 -56 l31 -46 29
32 c40 45 37 97 -8 123 l-32 19 -26 -31z"/>
<path d="M862 5237 l-32 -33 55 -27 c63 -31 85 -25 107 27 10 26 9 31 -11 47
-37 30 -82 24 -119 -14z"/>
<path d="M6633 5239 c-38 -24 -43 -57 -15 -82 24 -22 35 -21 55 1 17 19 22 57
11 86 -8 20 -12 20 -51 -5z"/>
<path d="M1172 5154 c-57 -50 -82 -89 -82 -127 0 -52 69 -74 131 -42 30 16 89
88 89 110 0 18 -61 105 -74 105 -6 0 -35 -21 -64 -46z"/>
<path d="M741 5131 c-46 -46 -69 -108 -55 -149 8 -23 16 -27 51 -30 35 -3 47
2 79 30 36 31 94 112 94 131 0 4 -19 16 -42 26 -82 36 -84 35 -127 -8z"/>
<path d="M5294 5136 c-3 -7 21 -38 57 -73 l62 -60 -72 -28 c-82 -31 -84 -17
18 -133 57 -65 66 -71 79 -58 13 13 9 22 -38 76 -30 35 -49 65 -44 69 5 5 37
19 72 31 34 13 62 26 62 30 0 12 -166 160 -179 160 -6 0 -14 -6 -17 -14z"/>
<path d="M6767 5022 c-11 -12 -17 -36 -17 -65 0 -49 26 -117 45 -117 5 0 27
11 48 25 41 29 46 53 23 109 -14 33 -50 66 -72 66 -6 0 -18 -8 -27 -18z"/>
<path d="M2838 4896 l-37 -74 -85 -12 c-47 -7 -86 -15 -86 -20 0 -4 24 -30 54
-59 30 -28 57 -55 60 -60 4 -5 -1 -44 -9 -87 -8 -43 -13 -79 -11 -81 2 -2 38
13 80 34 l76 37 75 -37 c42 -20 77 -37 79 -37 2 0 -4 39 -12 87 l-16 86 62 58
c34 32 62 60 62 63 0 2 -39 9 -86 16 l-85 12 -37 74 c-20 41 -39 74 -42 74 -3
0 -22 -33 -42 -74z"/>
<path d="M570 4896 c-20 -7 -37 -21 -39 -32 -2 -10 -12 -31 -22 -46 -11 -14
-19 -40 -19 -58 0 -17 -5 -40 -10 -51 -24 -45 29 -80 200 -132 49 -15 107 -41
135 -62 28 -19 53 -35 56 -35 12 0 31 49 24 60 -5 9 -12 4 -21 -16 -12 -27
-12 -24 -11 38 0 61 2 66 16 54 9 -7 23 -11 31 -8 12 4 13 3 2 -10 -7 -9 -10
-23 -6 -32 8 -21 9 -20 36 7 l23 23 -37 27 c-20 14 -59 59 -87 100 -28 41 -76
98 -109 127 -64 58 -100 68 -162 46z"/>
<path d="M994 4884 c4 -12 1 -14 -14 -9 -14 5 -20 2 -20 -10 0 -9 -4 -13 -10
-10 -5 3 -10 -3 -10 -14 0 -15 -5 -19 -16 -14 -11 4 -15 1 -13 -13 2 -10 0
-25 -4 -32 -5 -8 5 -31 27 -61 64 -87 137 -130 285 -166 54 -14 120 -34 145
-45 26 -11 63 -20 81 -20 45 0 123 -16 219 -46 199 -62 375 -87 618 -88 156
-1 179 1 195 16 36 36 7 41 -259 43 -257 2 -341 11 -477 51 -116 33 -172 68
-276 168 -55 53 -125 113 -155 133 -88 60 -228 131 -238 121 -5 -5 -20 -4 -36
2 -38 14 -49 13 -42 -6z"/>
<path d="M6601 4854 c-25 -32 -27 -83 -6 -124 17 -32 51 -46 90 -36 21 5 25
12 25 46 0 47 -14 88 -42 118 -28 29 -42 28 -67 -4z"/>
<path d="M6828 4823 c-28 -12 -38 -22 -38 -39 0 -52 26 -68 71 -44 14 8 19 21
19 55 0 50 1 49 -52 28z"/>
<path d="M5055 4777 c-69 -23 -100 -44 -156 -104 -129 -140 -130 -335 -3 -472
34 -37 77 -71 112 -88 50 -24 69 -28 147 -28 82 0 97 3 157 33 113 55 179 148
197 273 9 65 33 99 71 99 31 0 46 -26 59 -100 6 -39 21 -90 32 -112 32 -62
105 -135 168 -165 49 -25 68 -28 151 -28 84 0 102 3 152 28 73 36 150 119 177
192 57 152 1 332 -131 419 -179 119 -416 60 -514 -129 l-29 -54 -42 6 c-23 3
-55 1 -72 -5 -30 -11 -30 -10 -54 42 -56 122 -168 197 -305 203 -46 2 -93 -3
-117 -10z m233 -88 c215 -107 207 -413 -14 -519 -65 -32 -168 -33 -235 -3
-227 102 -229 424 -4 529 76 36 173 34 253 -7z m818 7 c107 -50 169 -146 169
-261 -1 -263 -311 -388 -497 -200 -108 109 -108 286 0 399 83 86 220 112 328
62z"/>
<path d="M6630 4640 c0 -23 42 -70 63 -70 7 0 22 6 32 14 16 12 18 19 10 43
-9 25 -16 28 -58 31 -42 3 -47 1 -47 -18z"/>
<path d="M3143 4627 c3 -9 42 -69 85 -134 119 -178 117 -156 17 -205 -47 -23
-85 -45 -85 -49 0 -3 75 -80 168 -170 155 -153 319 -295 329 -286 3 4 -102
207 -164 315 l-24 43 66 30 c45 21 64 36 61 45 -9 23 -236 403 -244 408 -4 2
-54 7 -111 11 -93 7 -104 6 -98 -8z"/>
<path d="M6877 4592 c-11 -12 -17 -36 -17 -65 0 -49 26 -117 45 -117 5 0 27
11 48 25 40 28 46 51 26 102 -14 37 -48 73 -69 73 -9 0 -24 -8 -33 -18z"/>
<path d="M995 4579 c4 -5 -5 -19 -20 -31 -15 -12 -34 -37 -43 -57 -8 -20 -17
-30 -19 -23 -3 6 -9 9 -14 6 -14 -8 27 -42 61 -49 16 -4 38 -1 49 5 18 9 34 1
119 -58 124 -89 142 -98 249 -122 48 -11 98 -22 109 -25 27 -6 333 -330 383
-404 19 -29 45 -83 57 -120 16 -49 26 -67 41 -69 24 -4 73 14 73 27 0 17 -78
126 -170 236 -102 124 -343 371 -368 379 -9 3 -65 14 -124 25 -120 22 -172 45
-267 122 -45 37 -61 56 -61 75 0 32 -25 80 -45 88 -10 3 -13 2 -10 -5z"/>
<path d="M550 4488 c-13 -10 -39 -18 -60 -18 -42 0 -62 -13 -147 -97 -50 -50
-53 -55 -53 -104 0 -42 3 -52 20 -56 15 -4 20 -15 22 -57 2 -41 -2 -60 -24
-99 -32 -54 -33 -63 -14 -74 13 -8 24 -56 31 -136 6 -62 18 -70 100 -63 67 6
71 5 89 -20 17 -24 18 -31 6 -83 -17 -71 -24 -85 -72 -143 -56 -68 -79 -127
-80 -205 0 -52 4 -69 20 -85 18 -18 22 -19 49 -5 16 9 42 34 57 57 15 23 62
77 103 121 l76 80 3 188 c2 187 2 189 -19 195 -12 3 -39 3 -61 -1 l-38 -6 7
32 c5 24 3 31 -9 31 -20 0 -21 19 -2 26 8 3 27 21 42 41 l26 35 -36 37 c-23
24 -36 46 -36 64 0 15 3 27 6 27 3 0 28 -12 54 -27 41 -23 51 -25 64 -14 25
21 19 46 -19 80 -20 17 -39 31 -43 31 -4 0 -36 27 -72 61 -36 33 -56 58 -45
54 57 -21 61 -19 85 39 12 31 24 55 27 53 2 -3 -4 -33 -14 -67 l-17 -63 28
-24 c35 -30 46 -27 71 22 20 39 82 104 99 105 5 0 0 -10 -11 -22 -33 -35 -73
-118 -73 -149 0 -39 13 -36 28 5 7 19 20 40 29 48 14 12 15 11 5 -7 -12 -24
-42 -172 -35 -178 9 -9 77 12 94 30 10 10 23 43 28 73 l9 55 1 -52 c0 -29 5
-53 10 -53 23 0 102 41 108 56 4 11 -13 34 -53 75 -63 64 -70 87 -10 38 41
-34 52 -33 42 5 -10 42 -56 86 -130 124 -65 33 -79 36 -157 37 -70 1 -91 -3
-109 -17z m-165 -288 c3 -5 -1 -10 -9 -10 -9 0 -16 5 -16 10 0 6 4 10 9 10 6
0 13 -4 16 -10z m2 -70 c3 -11 9 -20 14 -20 4 0 3 -15 -3 -32 -14 -41 -14 -42
-27 -33 -8 4 -6 11 4 21 16 17 11 63 -9 76 -7 5 -7 8 2 8 8 0 16 -9 19 -20z"/>
<path d="M2926 4438 l-39 -39 -5 -284 c-2 -156 -2 -294 2 -308 4 -17 20 -31
55 -46 64 -27 80 -27 55 0 -18 20 -19 38 -15 370 2 194 0 348 -5 348 -5 -1
-26 -20 -48 -41z"/>
<path d="M3099 4441 l-36 -37 -6 -300 c-8 -337 -12 -316 67 -348 50 -21 63
-20 43 2 -15 17 -17 57 -17 370 0 194 -3 351 -7 351 -5 -1 -24 -18 -44 -38z"/>
<path d="M2508 4358 c-3 -29 -21 -102 -40 -163 -29 -88 -40 -112 -60 -120 -39
-16 -88 -55 -88 -69 0 -8 6 -19 14 -25 11 -9 14 -8 12 5 -1 18 48 53 59 42 8
-7 -92 -328 -106 -342 -19 -21 -7 -26 57 -26 l66 0 -6 26 c-5 18 7 69 39 165
26 76 49 139 51 139 3 0 28 -19 57 -41 29 -23 66 -48 84 -55 26 -11 35 -23 48
-66 20 -69 19 -84 -7 -102 -21 -15 -15 -16 82 -16 l104 0 -21 20 c-12 11 -34
58 -49 105 -27 82 -28 86 -11 114 22 37 21 44 -2 31 -11 -5 -22 -10 -25 -10
-3 0 -33 86 -67 191 -42 132 -59 200 -55 220 l6 29 -69 0 -69 0 -4 -52z m112
-276 c18 -61 30 -115 27 -119 -9 -9 -50 14 -94 52 l-35 30 27 89 c18 58 30 84
35 75 4 -8 22 -65 40 -127z"/>
<path d="M6741 4391 c-26 -26 -35 -62 -27 -106 8 -43 42 -68 88 -63 l33 3 -1
63 c-2 96 -48 148 -93 103z"/>
<path d="M6938 4393 c-28 -12 -38 -22 -38 -39 0 -37 11 -54 35 -54 35 0 55 26
55 71 0 43 0 43 -52 22z"/>
<path d="M2103 4268 c-6 -7 -21 -35 -34 -61 -13 -27 -26 -50 -29 -52 -4 -2
-35 -9 -70 -14 -34 -6 -65 -13 -69 -16 -3 -4 18 -28 47 -54 l54 -48 -11 -58
c-19 -101 -20 -100 54 -60 l64 36 60 -31 c33 -16 65 -30 69 -30 6 0 4 30 -3
68 l-13 67 55 56 55 57 -28 6 c-16 3 -51 8 -78 12 -43 6 -50 10 -62 40 -27 65
-50 96 -61 82z"/>
<path d="M4205 4233 c-50 -6 -117 -34 -175 -73 -30 -20 -81 -54 -113 -74 -45
-28 -63 -48 -78 -81 -41 -93 -75 -275 -51 -275 4 0 15 12 24 28 9 15 30 40 47
56 29 28 33 29 69 18 22 -7 53 -12 71 -12 25 0 43 -12 91 -60 33 -33 60 -62
60 -65 0 -3 -11 -5 -24 -5 -55 0 -97 -67 -111 -175 -4 -27 -20 -89 -36 -136
-48 -143 -73 -129 241 -129 237 0 270 2 270 16 0 8 -7 47 -16 86 -9 40 -14 91
-11 116 6 59 -5 87 -55 139 -40 40 -40 43 -36 98 6 70 46 131 108 163 25 13
57 35 71 48 25 24 29 25 70 14 24 -7 60 -22 81 -33 20 -12 40 -18 44 -15 12
13 -26 96 -67 149 -52 65 -108 104 -171 119 -28 7 -72 26 -98 42 -68 42 -118
52 -205 41z"/>
<path d="M6750 4167 c0 -26 33 -67 55 -67 28 0 45 13 45 35 0 45 -10 55 -56
55 -39 0 -44 -2 -44 -23z"/>
<path d="M884 4139 c-82 -50 -79 -47 -71 -55 4 -4 22 5 41 20 19 14 39 26 45
26 35 0 11 -61 -41 -105 l-32 -27 20 -56 c11 -31 24 -57 30 -59 5 -2 15 26 21
61 6 36 22 89 36 119 29 64 43 117 30 117 -5 0 -40 -19 -79 -41z"/>
<path d="M6230 4118 c0 -7 13 -116 30 -243 16 -126 27 -231 25 -234 -3 -2 -17
1 -31 8 -16 7 -45 9 -76 5 l-50 -7 4 159 c3 128 7 165 21 192 l18 32 -111 0
c-60 0 -110 -4 -110 -8 0 -4 6 -14 12 -20 9 -9 14 -73 16 -212 l4 -199 -53
-34 c-90 -56 -85 -58 -92 51 -12 176 -9 325 8 349 13 19 13 22 -1 27 -20 8
-148 8 -197 -1 l-38 -6 24 -26 c24 -25 25 -31 31 -245 l7 -218 -26 6 c-15 4
-45 18 -67 32 -32 20 -37 28 -28 39 7 8 20 17 31 20 21 7 26 25 7 25 -37 0
-88 -22 -88 -38 0 -35 48 -88 110 -121 l62 -33 -4 -130 -3 -129 -35 -29 c-19
-16 -33 -31 -30 -33 3 -3 67 -7 143 -9 l137 -5 -20 22 c-18 19 -20 35 -20 176
l0 155 67 27 c37 14 69 24 72 22 10 -10 12 -247 3 -319 -8 -64 -15 -83 -38
-107 -15 -16 -26 -30 -23 -33 2 -2 65 -7 139 -10 l135 -8 -22 24 c-34 36 -43
109 -43 344 0 235 -2 228 65 235 l30 4 16 -95 c10 -52 20 -122 24 -155 l6 -59
-20 18 c-16 14 -21 16 -21 5 -1 -32 85 -529 91 -529 4 0 9 46 13 103 4 56 9
126 13 155 l5 53 21 -33 21 -33 8 55 c4 30 5 101 2 157 -7 112 1 144 22 94 8
-18 17 -30 21 -28 5 3 5 65 1 139 -4 73 -6 138 -5 143 2 6 18 -14 36 -42 36
-58 38 -59 127 -27 67 24 80 46 88 149 3 50 9 117 12 151 l6 60 -77 97 c-43
53 -82 97 -87 97 -5 0 -25 -7 -45 -15 -52 -22 -63 -19 -63 14 0 25 -4 29 -37
35 -69 11 -173 7 -173 -6z m304 -125 c3 -16 9 -107 12 -203 5 -132 4 -182 -5
-199 l-13 -23 -32 31 c-18 17 -37 31 -44 31 -9 0 -12 48 -12 185 0 183 0 186
23 195 43 17 64 12 71 -17z"/>
<path d="M6971 4104 c-26 -33 -36 -87 -25 -133 8 -31 13 -36 34 -33 67 9 98
51 86 116 -7 36 -39 76 -61 76 -7 0 -23 -12 -34 -26z"/>
<path d="M1325 4086 c-28 -7 -56 -16 -63 -20 -19 -11 -39 -56 -47 -104 -5 -31
-17 -52 -40 -74 -23 -20 -37 -45 -45 -79 -7 -29 -27 -67 -47 -91 -23 -28 -33
-48 -29 -62 24 -98 12 -203 -32 -269 -22 -33 -24 -44 -19 -104 8 -106 7 -107
-132 -98 -129 7 -177 -5 -201 -50 -19 -36 -8 -58 42 -83 112 -56 300 -50 522
15 199 59 217 63 316 73 156 16 340 72 363 111 15 25 -1 68 -29 81 -27 12 -78
5 -176 -26 l-47 -15 -40 67 c-81 136 -111 204 -111 255 0 36 -11 71 -46 144
l-47 97 27 21 c16 13 26 31 26 47 0 25 2 26 80 30 45 3 86 10 92 16 20 20 -20
51 -96 73 -39 12 -85 30 -102 40 -36 22 -49 22 -119 5z m64 -142 c22 -37 20
-64 -4 -44 -8 7 -19 9 -25 5 -13 -8 -39 22 -40 45 0 11 3 11 12 2 18 -18 28
-15 28 8 0 28 5 25 29 -16z m-82 -320 l73 -76 54 31 c63 37 79 27 38 -21 -16
-18 -27 -39 -24 -46 3 -11 -3 -10 -26 2 -42 22 -61 20 -104 -9 -47 -32 -58
-32 -28 0 26 28 27 27 -17 44 -18 8 -33 17 -33 21 0 5 -13 21 -30 36 -22 22
-27 31 -18 41 8 10 8 17 0 25 -19 19 -14 28 15 28 21 0 44 -18 100 -76z m203
-211 c12 -16 31 -30 43 -33 11 -3 22 -11 24 -17 3 -7 -13 -6 -49 4 -88 26
-288 -6 -427 -69 -36 -16 -45 -17 -52 -6 -6 10 1 14 30 18 21 3 71 26 112 50
90 54 166 79 241 79 50 1 59 -2 78 -26z m377 -138 c3 -9 -2 -22 -13 -30 -28
-20 -250 -77 -287 -73 -29 4 -21 9 83 60 90 44 126 57 163 57 34 1 49 -3 54
-14z"/>
<path d="M5110 4038 c-54 -27 -77 -70 -90 -161 -5 -34 -16 -82 -25 -106 -8
-24 -15 -59 -15 -77 0 -23 -11 -48 -35 -79 -40 -54 -55 -100 -55 -175 0 -91
43 -163 129 -220 l24 -16 -22 -42 c-27 -53 -27 -120 -1 -173 23 -45 65 -74
128 -90 23 -6 42 -14 42 -17 0 -3 -20 -66 -44 -141 -53 -163 -63 -231 -46
-312 22 -104 79 -164 151 -162 47 2 68 18 95 70 10 21 36 54 57 75 32 32 36
41 27 58 -6 11 -16 17 -25 14 -11 -5 -15 2 -15 25 0 33 8 39 28 19 21 -21 23
-2 3 44 -18 42 -38 57 -78 58 -17 0 -84 -73 -78 -87 2 -7 -2 -10 -9 -7 -9 3
-17 -9 -24 -38 -9 -34 -8 -49 3 -72 18 -36 18 -36 1 -36 -25 0 -39 56 -33 128
5 56 61 262 95 353 7 16 32 38 66 57 31 18 70 52 90 78 30 39 36 55 36 96 0
47 -3 53 -53 101 l-53 52 38 49 c43 57 63 129 54 189 -8 50 -49 126 -86 162
-25 24 -27 30 -18 61 7 28 5 43 -11 77 -11 23 -25 73 -31 111 -13 79 -38 122
-86 142 -47 20 -83 17 -134 -8z m150 -27 c15 -11 25 -28 24 -41 0 -13 7 -31
18 -42 12 -12 18 -32 18 -56 -1 -20 0 -48 2 -62 3 -23 0 -25 -36 -22 -39 4
-39 4 -33 -27 12 -57 -13 -83 -32 -33 l-10 27 2 -29 c1 -16 -4 -31 -10 -33 -8
-3 -14 6 -14 24 l-2 28 -4 -27 c-3 -19 -10 -26 -24 -25 -10 1 -19 5 -19 9 0 4
-7 5 -15 2 -18 -7 -20 13 -5 50 12 32 2 38 -45 25 -45 -13 -66 0 -44 27 7 9
12 32 10 51 -2 25 4 42 20 59 12 13 17 24 11 24 -17 0 -14 21 6 48 23 29 88
53 127 47 17 -3 41 -14 55 -24z m-240 -307 c0 -8 -4 -14 -10 -14 -5 0 -10 9
-10 21 0 11 5 17 10 14 6 -3 10 -13 10 -21z m60 -30 c0 -32 -4 -30 -29 10 -27
44 -26 50 4 30 15 -10 25 -26 25 -40z m265 31 c0 -15 -6 -19 -22 -18 -23 3
-53 -38 -53 -72 0 -9 -9 -15 -25 -15 -14 0 -25 -6 -26 -12 -6 -133 -5 -155 7
-173 8 -11 14 -27 14 -36 0 -10 34 -51 75 -92 41 -41 72 -77 68 -80 -14 -14
-32 -6 -35 15 -2 13 -11 24 -21 26 -24 5 -57 38 -57 56 0 8 -11 14 -27 14 -34
0 -56 28 -42 54 11 21 4 38 -17 38 -9 0 -14 11 -14 35 0 25 -4 35 -16 35 -13
0 -15 7 -9 43 4 23 12 48 18 55 8 11 7 16 -6 23 -24 14 -21 29 7 29 47 0 87
22 112 62 19 29 31 38 47 36 14 -2 22 -10 22 -23z m28 -85 c17 0 37 -66 24
-79 -7 -7 -4 -23 9 -50 15 -31 20 -36 26 -23 4 9 7 30 7 46 1 16 4 27 7 23 7
-6 7 -91 0 -122 -16 -75 -89 -148 -119 -119 -3 4 14 26 38 50 25 24 45 48 45
53 0 15 -53 6 -59 -10 -11 -27 -41 -63 -47 -56 -3 3 4 27 16 53 34 69 38 136
11 163 -27 27 -27 49 2 79 18 19 23 21 25 8 2 -9 9 -16 15 -16z m-353 5 c0
-19 -36 -39 -45 -25 -11 18 3 40 25 40 11 0 20 -7 20 -15z m20 -44 c0 -20 -44
-105 -48 -93 -5 17 27 102 39 102 5 0 9 -4 9 -9z m-66 -94 c-7 -101 2 -137 36
-137 10 0 22 -9 25 -20 3 -11 14 -20 23 -20 9 0 28 -9 41 -19 l24 -19 -23 -12
c-19 -10 -24 -10 -32 4 -5 9 -17 16 -27 16 -11 0 -22 7 -25 16 -5 12 -14 15
-35 11 -34 -7 -47 13 -31 43 8 15 6 21 -11 30 -20 11 -20 13 -4 30 19 22 14
50 -10 50 -9 0 -15 9 -15 25 0 18 7 26 25 31 17 4 25 13 25 28 0 21 7 36 17
36 2 0 1 -42 -3 -93z m141 -4 c10 -38 29 -92 42 -122 13 -30 21 -56 19 -58 -3
-3 -33 10 -68 29 -74 39 -93 69 -83 130 7 38 42 88 63 88 5 0 17 -30 27 -67z
m180 25 c23 -27 26 -39 22 -71 -3 -22 -15 -49 -26 -60 l-20 -21 -16 37 c-8 20
-15 61 -15 92 0 65 14 71 55 23z m-116 -264 c3 -3 -9 -19 -26 -37 -51 -54 -82
-177 -44 -177 7 0 11 -6 8 -14 -4 -10 -1 -13 7 -10 7 3 16 -2 20 -11 3 -10 12
-15 21 -11 11 4 15 -1 15 -19 0 -61 -110 -23 -149 52 -20 39 -8 119 27 181 26
45 94 71 121 46z m141 -76 c21 -35 27 -93 11 -103 -6 -3 -13 11 -17 32 -4 21
-13 50 -20 65 -17 32 -17 38 -4 38 6 0 19 -15 30 -32z m150 -53 c-1 -18 -1
-19 -11 -2 -5 9 -17 17 -24 17 -8 0 -15 6 -15 14 0 8 -3 23 -7 33 -5 12 3 9
25 -12 18 -16 32 -39 32 -50z m-199 43 c12 -16 17 -32 13 -50 -3 -15 2 -40 11
-58 15 -30 15 -33 -1 -51 -13 -15 -17 -36 -16 -84 0 -50 -4 -70 -20 -90 -11
-14 -17 -32 -14 -40 3 -8 1 -17 -4 -20 -6 -4 -10 -26 -10 -51 0 -33 -4 -44
-15 -44 -22 0 -34 -40 -28 -87 3 -25 1 -43 -6 -47 -16 -10 -13 -63 5 -115 8
-24 13 -46 10 -48 -3 -3 -19 8 -35 25 -25 24 -30 38 -30 73 0 24 -2 60 -6 81
-6 31 -4 37 15 43 15 5 20 13 17 26 -3 10 -1 21 4 24 5 3 6 25 3 49 -5 33 -2
46 12 61 30 30 44 64 37 96 -4 23 0 36 17 54 12 13 19 28 16 34 -4 6 -1 19 6
31 10 16 10 24 0 41 -11 17 -11 27 -1 51 11 27 10 32 -4 43 -19 14 -24 75 -6
75 6 0 19 -10 30 -22z m-81 -40 c23 -38 27 -108 6 -108 -7 0 -25 9 -40 21 -28
22 -35 64 -16 100 15 27 27 24 50 -13z m218 -33 c22 -47 14 -78 -25 -108 -49
-37 -62 -22 -33 38 12 25 23 57 24 70 1 32 20 32 34 0z m-20 -493 c4 -12 0
-12 -19 -2 -16 9 -24 10 -27 2 -2 -6 -10 -8 -18 -5 -7 3 -11 9 -8 15 9 13 67
5 72 -10z m-98 -66 c0 -2 -8 -10 -17 -17 -16 -13 -17 -12 -4 4 13 16 21 21 21
13z m36 -51 c9 -8 32 -15 52 -15 l37 -1 -47 -42 c-25 -23 -49 -52 -53 -64 -6
-23 -65 -63 -93 -63 -15 0 -82 57 -82 70 0 4 22 5 49 2 41 -4 52 -1 71 18 l22
22 -21 22 c-27 29 -27 44 2 56 32 13 47 12 63 -5z"/>
<path d="M5135 3930 c3 -5 11 -10 16 -10 6 0 7 5 4 10 -3 6 -11 10 -16 10 -6
0 -7 -4 -4 -10z"/>
<path d="M5210 3930 c0 -5 7 -7 15 -4 8 4 15 8 15 10 0 2 -7 4 -15 4 -8 0 -15
-4 -15 -10z"/>
<path d="M5083 3905 c4 -5 -1 -17 -10 -27 -13 -15 -15 -23 -6 -36 5 -9 16 -17
24 -17 8 0 17 -4 20 -9 10 -13 27 1 45 36 10 18 12 34 6 40 -11 11 -90 24 -79
13z"/>
<path d="M5218 3899 c-23 -13 -23 -31 1 -60 16 -19 22 -22 32 -11 7 6 21 12
31 12 30 0 24 48 -8 60 -31 12 -34 12 -56 -1z"/>
<path d="M5171 3832 c-16 -31 -14 -55 5 -48 9 3 20 6 25 6 13 0 11 23 -5 45
-13 18 -14 18 -25 -3z"/>
<path d="M5131 3734 c0 -11 3 -14 6 -6 3 7 2 16 -1 19 -3 4 -6 -2 -5 -13z"/>
<path d="M719 4014 c-11 -14 -10 -16 9 -12 13 1 23 7 23 13 1 17 -17 16 -32
-1z"/>
<path d="M6761 3983 c-26 -21 -42 -83 -32 -121 8 -29 42 -52 78 -52 17 0 24 9
32 38 31 110 -14 187 -78 135z"/>
<path d="M7005 3913 c-67 -12 -66 -12 -63 -51 3 -34 6 -37 35 -40 27 -3 34 2
47 27 27 50 20 71 -19 64z"/>
<path d="M6730 3765 c0 -40 32 -80 57 -71 8 3 19 6 24 6 5 0 9 16 9 36 0 31
-4 37 -35 50 -49 20 -55 18 -55 -21z"/>
<path d="M3353 3688 l-38 -73 -79 -12 c-43 -7 -80 -14 -82 -16 -3 -2 23 -31
56 -63 l60 -59 -15 -78 c-8 -43 -15 -83 -15 -88 0 -5 36 9 79 31 l80 40 75
-41 c87 -47 85 -49 65 69 l-11 64 62 63 62 63 -28 5 c-16 3 -49 9 -74 12 -73
10 -75 12 -110 85 -19 39 -37 70 -41 70 -5 0 -25 -33 -46 -72z"/>
<path d="M6910 3640 c-28 -28 -40 -63 -40 -116 l0 -44 43 0 c51 0 63 7 76 43
35 92 -22 174 -79 117z"/>
<path d="M1892 3574 c-15 -10 -22 -25 -22 -46 l0 -32 28 27 c46 44 103 32 128
-28 8 -20 14 -68 14 -115 0 -94 -24 -176 -76 -260 -28 -47 -50 -112 -70 -216
-2 -12 -12 -32 -23 -45 l-19 -23 -58 28 c-52 26 -65 28 -141 24 -46 -2 -83 -3
-83 -1 0 1 18 15 40 29 70 47 34 39 -43 -9 -83 -52 -164 -133 -197 -196 -20
-40 -24 -43 -53 -37 -18 4 -79 29 -137 56 -136 63 -193 79 -326 89 -127 9
-162 23 -240 94 -58 53 -134 169 -134 205 0 16 8 24 32 30 36 9 43 20 25 43
-21 28 -54 32 -76 10 -26 -26 -26 -57 -2 -154 24 -92 51 -147 103 -210 22 -26
58 -78 80 -115 54 -90 101 -138 173 -174 l60 -31 135 6 c74 3 174 13 221 23
48 9 93 14 102 11 8 -3 23 -30 32 -59 19 -56 46 -101 80 -131 26 -24 115 -67
138 -67 26 0 21 15 -10 28 -25 10 -23 11 23 7 102 -10 166 14 295 113 l36 27
2 102 c1 57 -3 120 -10 142 -11 37 -10 41 29 97 22 33 64 82 93 109 30 29 63
73 77 104 24 51 25 60 18 175 -11 210 -48 323 -119 367 -39 23 -94 25 -125 3z
m-149 -891 c20 -19 18 -63 -4 -89 -14 -17 -34 -7 -21 9 11 14 3 87 -9 87 -5 0
-9 -29 -9 -64 0 -36 -4 -67 -9 -70 -4 -3 -7 -16 -4 -28 4 -24 -12 -57 -22 -47
-3 4 -7 28 -8 54 -1 28 -7 50 -14 53 -10 3 -13 -13 -13 -58 0 -52 -3 -61 -17
-58 -11 2 -17 15 -20 42 -5 62 -25 65 -27 4 -1 -22 -6 -34 -18 -36 -19 -4 -26
42 -20 136 3 43 7 52 20 50 12 -2 17 -17 20 -48 4 -51 6 -55 21 -45 6 3 11 28
11 56 0 37 4 49 15 49 11 0 15 -11 15 -40 0 -43 0 -43 24 -34 13 5 15 16 10
57 l-7 50 33 -7 c19 -3 42 -14 53 -23z"/>
<path d="M6675 3530 c-23 -24 -29 -39 -29 -77 -1 -45 1 -48 42 -71 l42 -24 20
44 c52 114 -1 205 -75 128z"/>
<path d="M2226 3465 c-2 -7 -8 -33 -11 -59 -7 -46 0 -57 23 -34 6 6 42 12 79
12 l67 1 7 -34 c4 -18 10 -62 14 -98 6 -60 5 -65 -10 -59 -19 7 -19 2 1 -138
5 -36 4 -47 -4 -42 -16 10 -15 2 9 -143 22 -127 39 -175 39 -110 0 68 12 110
28 104 13 -5 14 6 9 80 -4 51 -2 85 3 85 6 0 10 -5 10 -11 0 -5 5 -7 11 -3 8
4 10 62 8 188 l-4 181 66 0 c52 0 72 -4 88 -19 24 -22 25 -19 10 56 l-11 55
-214 0 c-156 0 -214 -4 -218 -12z"/>
<path d="M6847 3443 c-14 -13 -7 -74 8 -79 38 -15 95 30 95 76 0 11 -92 14
-103 3z"/>
<path d="M2720 3208 c0 -128 -3 -243 -6 -255 -6 -21 -3 -23 35 -23 l41 0 0
128 0 128 29 28 29 28 12 -22 c8 -15 11 -66 8 -159 -3 -112 -6 -141 -22 -163
-28 -43 20 -32 72 15 21 19 22 28 22 168 l0 148 -37 26 c-47 31 -57 31 -81 0
-11 -14 -23 -25 -27 -25 -4 0 -5 47 -3 105 l3 105 -37 0 -38 0 0 -232z"/>
<path d="M6625 3340 c-10 -32 16 -75 49 -78 57 -7 65 55 11 81 -45 22 -52 21
-60 -3z"/>
<path d="M2992 3322 c-16 -5 -15 -54 1 -77 10 -13 21 -16 40 -11 23 5 27 12
27 45 0 35 -3 39 -28 43 -16 2 -34 2 -40 0z"/>
<path d="M4677 3267 c-14 -18 -37 -51 -52 -75 -27 -42 -28 -43 -9 -63 10 -12
35 -34 54 -49 l36 -28 -4 34 c-2 18 1 56 8 85 12 48 14 50 39 44 14 -3 40 -14
56 -24 30 -17 30 -18 33 -110 2 -70 -1 -99 -12 -116 -23 -36 -51 -40 -86 -13
l-32 23 -28 -35 c-26 -31 -29 -43 -30 -102 l0 -68 51 0 52 0 -7 68 c-5 58 -4
65 8 50 23 -30 46 -20 113 49 74 77 83 94 83 168 0 47 -3 56 -32 80 -29 25
-140 85 -194 105 -20 8 -27 5 -47 -23z"/>
<path d="M3586 3211 c-15 -22 -49 -54 -73 -73 l-45 -33 36 -3 36 -3 0 -208 c0
-231 -3 -220 69 -246 l43 -15 -17 26 c-15 23 -16 48 -9 235 l7 209 24 0 c32 0
28 34 -5 38 -20 3 -22 9 -22 58 0 30 -3 54 -7 54 -5 0 -21 -18 -37 -39z"/>
<path d="M3737 3214 c-12 -12 -8 -53 9 -85 12 -24 19 -29 37 -23 39 12 48 25
45 68 -3 40 -4 41 -43 44 -23 2 -44 0 -48 -4z"/>
<path d="M6788 3193 c-31 -32 -48 -73 -48 -113 0 -26 3 -28 46 -32 41 -3 49 0
70 25 24 28 33 93 18 131 -10 26 -57 19 -86 -11z"/>
<path d="M3153 3159 c-29 -22 -53 -42 -53 -44 0 -2 27 -36 60 -77 61 -74 66
-84 52 -105 -12 -20 -52 13 -52 43 0 29 -10 30 -41 5 l-24 -19 32 -44 c17 -23
37 -44 45 -46 17 -3 118 73 118 89 0 6 -27 42 -61 79 -57 65 -71 98 -43 107
18 6 44 -26 44 -52 0 -21 3 -22 28 -16 16 4 28 15 30 27 3 21 -52 94 -71 94
-7 0 -36 -18 -64 -41z"/>
<path d="M2985 3073 c0 -65 -3 -137 -8 -160 l-7 -43 39 0 39 0 3 83 c1 45 3
116 3 157 l1 75 -35 3 -36 3 1 -118z"/>
<path d="M4362 3062 c-52 -46 -53 -49 -59 -113 -10 -110 1 -148 53 -193 62
-53 90 -53 127 1 l30 41 -22 28 c-19 24 -21 24 -21 7 0 -33 -21 -83 -35 -83
-20 0 -22 7 -30 97 -6 76 -6 81 14 88 11 3 39 1 62 -5 46 -13 59 -5 59 35 0
52 -22 96 -60 120 -22 14 -45 25 -52 25 -7 0 -37 -22 -66 -48z m108 -94 c0 -6
-7 -7 -16 -4 -9 3 -24 6 -35 6 -17 0 -19 5 -13 43 10 73 15 75 40 18 13 -29
24 -58 24 -63z"/>
<path d="M6482 3094 c-30 -21 -52 -66 -52 -107 0 -28 6 -37 39 -55 21 -12 42
-22 45 -22 13 0 46 86 46 120 0 38 -23 80 -43 80 -7 0 -23 -7 -35 -16z"/>
<path d="M4021 3078 c-12 -13 -28 -32 -36 -43 -14 -19 -14 -18 -15 13 0 35
-10 41 -31 16 -7 -8 -26 -23 -43 -32 -24 -12 -27 -17 -14 -20 9 -2 20 -13 24
-24 7 -22 -3 -229 -12 -260 -5 -16 2 -18 45 -18 50 0 50 0 41 26 -6 14 -10 72
-10 130 0 113 15 164 49 164 17 0 19 -14 25 -161 6 -119 5 -164 -4 -175 -18
-21 2 -18 44 7 l36 21 0 126 c0 119 2 129 24 157 42 51 49 28 50 -164 l1 -170
40 24 40 23 3 144 3 143 -31 48 c-16 26 -34 47 -40 47 -6 0 -27 -17 -47 -39
l-37 -38 -28 38 c-32 45 -48 48 -77 17z"/>
<path d="M5615 2997 c-38 -80 -38 -80 -130 -92 -84 -11 -84 -11 -17 -78 l62
-62 -15 -79 c-8 -44 -13 -81 -11 -84 3 -2 38 13 79 34 l74 38 72 -38 c40 -21
75 -35 78 -32 3 3 0 42 -7 87 l-13 82 63 57 c35 31 59 59 54 62 -5 3 -38 9
-74 13 -36 4 -73 11 -82 16 -9 5 -31 37 -48 72 -18 34 -36 66 -40 71 -5 5 -24
-23 -45 -67z"/>
<path d="M3736 2953 c5 -92 -3 -211 -17 -262 -3 -11 7 -15 44 -15 l49 -1 5
193 5 192 -46 0 -46 0 6 -107z"/>
<path d="M6724 3019 c-30 -11 -41 -59 -18 -76 27 -19 52 -16 79 12 20 19 34
55 22 55 -1 0 -16 4 -32 9 -17 4 -40 5 -51 0z"/>
<path d="M6416 2886 c-8 -34 12 -75 41 -82 27 -7 53 11 53 35 0 21 -36 56 -66
65 -17 5 -23 2 -28 -18z"/>
<path d="M6410 2770 c-142 -30 -311 -76 -416 -115 -77 -28 -108 -45 -140 -78
-38 -38 -138 -98 -172 -103 -48 -8 -259 -140 -350 -219 -102 -91 -140 -172
-152 -325 l-7 -95 -1 85 c-1 47 5 112 12 145 8 33 13 62 11 64 -10 9 -36 -12
-59 -47 -31 -49 -44 -97 -60 -220 l-12 -97 -13 74 c-8 42 -11 102 -8 135 l6
61 -29 -56 c-42 -82 -53 -160 -45 -326 8 -149 2 -169 -28 -110 -14 26 -17 27
-12 7 20 -87 21 -85 -48 -197 -74 -122 -137 -242 -137 -261 0 -9 11 -7 38 7
29 15 41 29 50 58 34 111 185 352 328 523 138 164 349 371 579 567 86 73 205
166 205 161 0 -3 -39 -38 -87 -79 -275 -234 -433 -381 -556 -518 -126 -140
-302 -371 -283 -371 2 0 39 7 82 16 165 32 238 69 287 143 37 56 34 63 -16 41
-46 -21 -175 -44 -204 -37 -10 2 5 7 32 11 95 14 180 38 230 65 47 24 159 127
389 356 84 84 115 107 193 146 51 26 110 61 132 78 41 32 139 167 129 177 -4
3 -24 -6 -46 -20 -40 -25 -179 -72 -188 -64 -2 3 35 21 83 41 49 20 119 56
155 79 37 24 92 58 122 77 71 44 178 151 151 151 -16 0 -15 4 10 30 24 26 26
30 11 36 -9 3 -30 4 -46 1 -23 -5 -28 -3 -23 8 6 18 11 18 -97 -5z m-735 -340
c-9 -16 -18 -30 -21 -30 -2 0 2 14 11 30 9 17 18 30 21 30 2 0 -2 -13 -11 -30z
m152 -316 c-3 -3 -12 -4 -19 -1 -8 3 -5 6 6 6 11 1 17 -2 13 -5z m-680 -146
c-3 -8 -6 -5 -6 6 -1 11 2 17 5 13 3 -3 4 -12 1 -19z m-30 -115 c-2 -21 -4 -4
-4 37 0 41 2 58 4 38 2 -21 2 -55 0 -75z"/>
<path d="M4678 2697 c-35 -28 -35 -34 -1 -69 34 -36 48 -35 84 3 35 38 36 52
4 73 -33 21 -55 20 -87 -7z"/>
<path d="M2205 2237 c-115 -199 -218 -377 -228 -394 l-19 -33 457 0 457 0 -38
68 c-57 103 -406 706 -413 714 -4 4 -101 -155 -216 -355z m195 158 l0 -84 -42
-11 c-24 -7 -54 -18 -66 -27 -13 -8 -25 -13 -27 -11 -5 5 119 218 128 218 4 0
7 -38 7 -85z m94 -9 c79 -132 78 -131 15 -101 -30 14 -60 25 -66 25 -10 0 -13
24 -13 85 0 47 2 85 5 85 2 0 29 -42 59 -94z m-104 -311 c0 -190 -1 -195 -20
-195 -47 0 -119 59 -139 113 -16 41 -13 124 4 162 26 54 93 104 153 115 1 0 2
-88 2 -195z m120 165 c118 -60 133 -243 27 -323 -35 -26 -92 -49 -101 -40 -3
4 -6 91 -6 195 0 183 1 188 20 188 12 0 39 -9 60 -20z m-328 -200 c5 -71 41
-130 102 -170 l39 -25 -77 -3 c-42 -2 -110 -2 -151 0 l-75 3 73 127 c39 70 75
128 78 128 4 0 9 -27 11 -60z m552 -65 c36 -63 66 -119 66 -125 0 -6 -54 -10
-152 -10 l-151 0 41 28 c71 48 112 118 112 192 0 23 4 39 9 35 5 -3 39 -57 75
-120z"/>
<path d="M896 2431 c-3 -5 27 -36 68 -69 40 -34 107 -94 148 -134 41 -40 117
-107 168 -148 51 -41 118 -103 148 -137 30 -35 64 -66 75 -69 27 -9 267 -214
267 -229 0 -16 38 -49 80 -70 71 -36 279 -218 316 -277 24 -37 68 -68 99 -68
36 0 239 -190 257 -242 12 -33 75 -78 111 -78 26 0 110 -75 206 -184 22 -25
39 -36 52 -33 22 6 42 -15 62 -66 20 -46 39 -47 84 -2 47 47 41 66 -30 88 -47
15 -57 22 -57 41 0 28 -20 46 -90 81 -67 34 -172 125 -165 143 3 7 1 21 -4 31
-13 24 -83 71 -105 71 -22 0 -123 69 -194 132 -30 27 -57 48 -62 48 -5 0 -13
15 -19 33 -13 38 -49 68 -102 86 -50 16 -244 179 -333 279 -15 18 -44 39 -62
47 -44 18 -237 176 -266 218 -27 39 -44 53 -84 71 -32 14 -192 144 -234 190
-14 15 -50 44 -80 66 -30 21 -95 72 -145 114 -91 77 -100 83 -109 67z"/>
<path d="M4139 2408 c5 -13 9 -76 10 -140 l2 -117 -29 -15 c-28 -14 -32 -14
-57 5 -26 21 -26 23 -23 125 l3 104 -53 0 c-40 0 -51 -3 -46 -12 5 -7 7 -45 5
-85 l-2 -72 60 -65 c57 -62 75 -96 50 -96 -8 0 -9 -12 -4 -37 5 -21 9 -58 10
-83 1 -25 8 -65 16 -90 13 -43 13 -44 17 -15 2 17 8 34 12 39 5 5 6 29 3 53
-5 37 -3 42 10 37 13 -5 15 5 11 73 l-5 78 45 28 c26 16 48 38 51 50 2 12 6
75 7 140 l3 117 -52 0 c-50 0 -52 -1 -44 -22z"/>
<path d="M2838 2178 c2 -163 7 -226 16 -236 11 -12 182 -53 230 -56 15 -1 25
11 39 49 l18 50 -27 24 -28 23 -11 -38 c-11 -38 -12 -39 -56 -37 -24 0 -56 6
-71 12 -28 10 -28 12 -28 98 0 49 -3 133 -6 189 -5 68 -3 108 5 122 11 21 10
22 -36 22 l-48 0 3 -222z"/>
<path d="M4396 2359 c-25 -17 -67 -50 -92 -73 l-46 -41 111 -133 c61 -73 111
-135 111 -139 0 -3 -12 -21 -26 -40 -30 -40 -40 -36 -86 36 -26 42 -27 46 -11
63 15 17 15 18 -1 18 -9 0 -31 -7 -48 -16 -27 -14 -30 -19 -25 -50 6 -38 99
-154 122 -154 17 0 174 117 181 134 8 22 -8 45 -116 167 -55 62 -100 120 -100
130 0 10 7 25 16 34 15 15 18 14 43 -1 54 -34 82 -68 76 -91 -5 -20 -3 -21 25
-13 43 12 50 19 50 43 0 36 -92 157 -120 157 -9 0 -38 -14 -64 -31z"/>
<path d="M3158 2338 c8 -8 12 -60 12 -167 l0 -154 40 -54 c23 -29 45 -53 49
-53 12 0 65 50 79 75 11 19 14 18 51 -25 22 -25 41 -43 44 -40 2 3 28 37 58
75 l54 70 -4 113 c-2 78 1 117 9 127 11 13 4 15 -44 15 -53 0 -56 -1 -46 -19
5 -11 10 -70 10 -132 0 -106 -1 -114 -26 -147 l-27 -35 -18 24 c-15 20 -19 43
-19 136 0 118 -7 138 -41 107 -16 -14 -19 -31 -19 -102 0 -69 -4 -91 -21 -119
-12 -19 -26 -32 -33 -30 -16 5 -31 306 -16 330 9 15 5 17 -47 17 -44 0 -54 -3
-45 -12z"/>
<path d="M3720 2328 c0 -13 -12 -58 -26 -100 -21 -64 -31 -80 -60 -97 -19 -11
-34 -25 -34 -31 0 -13 17 -13 25 0 9 14 25 12 25 -2 0 -7 -15 -59 -33 -115
l-33 -103 38 0 c33 0 38 3 38 22 0 30 50 180 58 176 4 -2 28 -17 54 -33 55
-34 82 -91 58 -120 -11 -13 -6 -15 44 -15 31 0 56 2 56 3 0 2 -8 19 -17 38 -9
18 -17 54 -17 80 -1 26 -5 47 -11 46 -11 -2 -83 206 -84 246 -1 25 -4 27 -41
27 -35 0 -40 -3 -40 -22z m67 -180 c12 -40 20 -74 18 -77 -6 -6 -75 40 -75 50
0 22 23 99 29 99 4 0 17 -33 28 -72z"/>
<path d="M1749 2270 c-35 -73 -37 -75 -109 -85 -25 -3 -58 -9 -74 -12 l-28 -5
62 -63 62 -63 -11 -64 c-20 -118 -22 -116 64 -68 l74 41 77 -40 c43 -23 78
-40 80 -38 1 1 -5 40 -13 86 l-14 84 62 63 62 63 -34 5 c-19 3 -56 9 -84 14
-50 7 -50 8 -87 77 -20 38 -40 71 -46 73 -5 1 -24 -29 -43 -68z"/>
<path d="M4656 1970 c-19 -19 -19 -20 -1 -40 23 -25 47 -26 68 -2 21 23 21 32
0 48 -25 18 -45 16 -67 -6z"/>
<path d="M4818 1976 c-10 -7 -18 -19 -18 -25 0 -17 25 -41 43 -41 15 0 47 31
47 45 0 10 -32 34 -45 34 -5 0 -18 -6 -27 -13z"/>
<path d="M3634 1814 c-91 -48 -382 -274 -495 -385 l-47 -46 5 -164 c8 -223 22
-248 186 -324 163 -75 350 -97 500 -60 l27 7 0 -78 c-1 -44 -5 -137 -10 -208
-8 -126 -9 -130 -45 -182 -30 -43 -46 -56 -77 -65 -88 -23 -165 9 -279 118
-127 121 -140 157 -73 201 31 20 45 42 27 42 -5 0 -60 -14 -123 -30 -168 -45
-187 -75 -134 -218 25 -69 28 -72 200 -226 136 -121 181 -156 202 -156 38 0
144 67 346 220 241 182 230 168 235 298 6 197 -27 820 -48 899 -4 14 -72 106
-151 204 -162 200 -160 198 -246 153z m50 -265 c31 -33 66 -79 77 -101 26 -51
46 -147 55 -265 l6 -92 -43 -12 c-24 -7 -96 -13 -160 -14 -109 0 -119 2 -174
30 -47 24 -64 39 -82 75 -31 60 -34 141 -8 174 68 84 243 265 256 266 9 0 42
-27 73 -61z"/>
<path d="M4209 1795 c-19 -7 -54 -22 -77 -34 -62 -32 -55 -70 17 -91 l30 -8
-5 41 c-6 40 -5 43 27 54 18 7 37 9 42 4 4 -4 7 -41 5 -82 -3 -73 -3 -74 -33
-79 -41 -7 -40 -34 1 -38 l31 -3 5 -82 c6 -91 0 -107 -43 -107 -32 0 -54 29
-44 60 9 29 -16 26 -45 -5 l-23 -25 24 -27 c35 -40 40 -43 88 -43 27 0 56 8
77 21 l34 21 0 83 c0 61 -4 86 -15 95 -8 7 -15 18 -15 25 0 7 7 18 15 25 10 9
15 31 15 72 0 52 -4 65 -31 99 -34 44 -31 42 -80 24z"/>
<path d="M2062 1748 c-7 -7 -12 -24 -12 -38 0 -15 -14 -46 -31 -70 -29 -39
-30 -44 -14 -59 15 -15 18 -14 36 8 10 13 19 29 19 37 0 8 7 14 15 14 21 0 19
-24 -5 -45 -23 -21 -27 -55 -6 -55 8 0 18 5 21 10 12 20 26 10 15 -10 -11 -20
3 -30 15 -10 12 20 26 10 15 -10 -20 -37 9 -21 36 20 36 54 59 52 154 -10 69
-45 77 -53 72 -77 -4 -24 -3 -25 22 -19 25 6 26 4 26 -32 0 -47 24 -82 55 -82
27 0 55 24 55 48 1 14 4 13 19 -5 10 -12 33 -30 52 -41 18 -10 36 -29 40 -43
4 -13 8 -19 8 -14 1 6 6 3 11 -5 9 -13 11 -13 19 0 6 8 13 11 18 7 4 -5 -2
-16 -13 -25 -53 -42 -59 -109 -15 -153 37 -36 99 -43 131 -14 11 10 33 12 75
8 56 -5 62 -3 87 22 36 35 45 83 24 124 -9 17 -20 31 -25 31 -5 0 -8 24 -7 54
1 48 -3 59 -28 85 -55 57 -144 32 -171 -48 -9 -29 -12 -30 -30 -17 -17 12 -18
16 -5 32 14 16 13 17 -16 11 -25 -5 -36 -1 -53 17 -13 13 -36 27 -54 30 l-31
6 22 16 c30 21 28 59 -3 80 -22 14 -32 15 -64 5 -49 -14 -51 -14 -51 3 0 22
-17 28 -38 15 -16 -10 -42 4 -185 100 -92 61 -173 111 -180 111 -7 0 -18 -5
-25 -12z m533 -247 c3 -5 0 -13 -7 -17 -6 -4 -14 -2 -16 5 -3 8 -8 6 -17 -6
-11 -15 -16 -16 -27 -5 -11 11 -10 14 2 22 19 12 57 13 65 1z m-95 -106 c-8
-10 -7 -14 4 -17 11 -2 13 -7 6 -18 -9 -13 -12 -12 -25 4 -8 11 -15 30 -15 43
0 21 3 22 21 13 16 -9 18 -15 9 -25z m426 -30 c19 -29 13 -70 -12 -79 -11 -4
-18 1 -21 14 -7 25 -38 26 -52 3 -9 -16 -12 -16 -21 -3 -13 19 -4 61 17 78 28
21 71 15 89 -13z m38 -147 c35 -50 5 -102 -56 -96 -27 2 -34 7 -36 30 -3 22 0
26 17 21 25 -6 39 20 22 41 -9 11 -9 15 1 19 25 10 37 7 52 -15z m-184 -6 c0
-4 -5 -13 -11 -19 -20 -20 -2 -46 26 -39 20 5 25 3 25 -12 0 -26 -20 -42 -54
-42 -57 0 -83 51 -50 98 14 21 64 32 64 14z m30 -32 c0 -5 -2 -10 -4 -10 -3 0
-8 5 -11 10 -3 6 -1 10 4 10 6 0 11 -4 11 -10z"/>
<path d="M4510 1580 c-17 -34 -39 -64 -49 -67 -10 -2 -31 -31 -46 -63 -16 -33
-34 -61 -40 -64 -14 -5 -118 -196 -111 -203 2 -2 17 14 32 36 16 22 34 41 39
41 6 0 25 23 43 50 17 28 38 50 45 50 6 0 48 55 91 122 62 95 77 124 69 137
-22 34 -41 24 -73 -39z"/>
<path d="M5023 1423 c9 -2 25 -2 35 0 9 3 1 5 -18 5 -19 0 -27 -2 -17 -5z"/>
<path d="M4507 1353 c-20 -40 -33 -73 -27 -73 5 0 -2 -26 -15 -57 -18 -39 -22
-59 -14 -63 7 -5 4 -20 -10 -48 -12 -23 -21 -44 -21 -47 0 -3 36 -5 80 -5 l80
0 0 -34 c0 -19 -4 -46 -10 -60 -9 -25 -8 -26 30 -26 l40 0 0 60 0 60 35 0 c35
0 35 0 35 46 0 40 -2 45 -17 39 -41 -17 -54 -18 -53 -4 1 8 2 26 1 42 -1 23
-5 27 -31 27 -29 0 -30 -2 -30 -45 0 -31 -4 -45 -13 -45 -24 0 -25 10 -6 83
22 85 23 95 7 79 -22 -22 -26 -12 -12 33 7 25 9 45 4 45 -5 0 -10 15 -12 33
-3 31 -5 29 -41 -40z"/>
<path d="M4995 1400 c-4 -6 14 -10 47 -9 45 1 49 3 23 9 -44 11 -63 11 -70 0z"/>
<path d="M4405 884 c-44 -23 -79 -59 -110 -115 l-26 -49 65 -31 66 -31 30 22
c51 36 83 86 88 139 4 42 1 50 -19 65 -29 20 -56 20 -94 0z"/>
<path d="M4199 660 c-38 -37 -35 -68 8 -92 28 -17 35 -17 65 -5 18 8 43 26 56
39 l23 25 -55 32 c-31 17 -58 31 -62 31 -3 0 -19 -13 -35 -30z"/>
</g>
</svg>
